<?xml version="1.0" encoding="iso-8859-1"?>
<!-- Generator: Adobe Illustrator 19.0.0, SVG Export Plug-In . SVG Version: 6.00 Build 0)  -->
<svg version="1.1" id="Layer_1" xmlns="http://www.w3.org/2000/svg" xmlns:xlink="http://www.w3.org/1999/xlink" x="0px" y="0px"
	fill="url(#svg_2)" viewBox="0 0 512.001 512.001" style="enable-background:new 0 0 512.001 512.001;" xml:space="preserve">

  <defs>
  <linearGradient y2="1" x2="0" y1="0" x1="0" id="svg_2">
   <stop offset="0" stop-color="#6d70dd"/>
    <stop offset="1" stop-color="#b52dc0"/>
  </linearGradient>
 </defs>
  <g>
	<g>
		<g>
			<path d="M187.287,130.972c17.801,9.839,39.492,18.185,64.512,24.158c64.427-0.213,110.063-58.078,146.219-114.697l4.113-7.432
				C379.654,19.117,354.515,9.15,327.686,4.005l-5.538,11.093C289.201,66.716,247.746,119.281,187.287,130.972z"/>
			<path d="M347.309,279.018c-100.787,0-190.652-27.827-240.017-65.05c-21.555-16.256-33.143-33.297-33.579-49.348l-0.913-4.454
				c-5.692,19.601-8.798,40.286-8.798,61.705c0,1.911,0.094,3.797,0.145,5.7l18.995,28.331
				c48.606,72.559,161.869,101.257,367.241,93.201h17.084c19.362-27.563,32.649-59.682,37.828-94.43l-13.09,4.378
				C443.531,272.976,394.234,279.018,347.309,279.018z"/>
			<path d="M497.808,156.193l-14.933,5.76c-50.065,14.114-97.604,20.139-140.757,20.139c-81.169,0-146.859-21.299-184.951-50.15
				c-22.554-17.084-34.978-36.804-34.978-55.526l-0.307-3.831c-15.497,17.007-28.331,36.446-37.982,57.626l6.869,33.476
				c0,10.607,9.515,23.62,26.803,36.659c98.244,74.069,275.251,69.393,369.579,42.411l20.087-6.716
				c0.299-4.693,0.495-9.412,0.495-14.174C507.733,199.014,504.251,176.955,497.808,156.193z"/>
			<path d="M387.159,367.48c-172.083,0-271.394-32.222-318.191-102.076l-0.887-1.323c6.263,32.393,19.635,62.268,38.366,88.004
				c-1.186,22.477-19.678,40.448-42.445,40.448c-32.93,0-59.733,26.795-59.733,59.733c0,32.939,26.803,59.733,59.733,59.733
				c32.93,0,59.733-26.795,59.733-59.733c0-4.71-3.814-8.533-8.533-8.533s-8.533,3.823-8.533,8.533
				c0,23.526-19.14,42.667-42.667,42.667c-23.526,0-42.667-19.14-42.667-42.667c0-23.526,19.14-42.667,42.667-42.667
				c26.129,0,48.341-16.896,56.431-40.311c40.644,45.585,99.686,74.445,165.436,74.445c67.277,0,127.607-30.14,168.329-77.577
				h-3.482C428.52,367.037,407.332,367.48,387.159,367.48z"/>
			<path d="M164.894,116.25c51.345-1.195,94.208-34.227,142.635-109.961l2.466-4.949C302.067,0.478,294.02,0,285.871,0
				c-56.892,0-108.834,21.538-148.139,56.866l1.493,18.876C139.251,88.969,148.39,103.057,164.894,116.25z"/>
			<path d="M298.436,162.894c51.951,5.393,113.084,1.459,179.055-17.118l14.583-5.623c-15.616-39.262-42.095-73.037-75.75-97.587
				l-3.652,6.588C382.729,96.078,346.59,143.412,298.436,162.894z"/>
		</g>
	</g>
</g>
<g>
</g>
<g>
</g>
<g>
</g>
<g>
</g>
<g>
</g>
<g>
</g>
<g>
</g>
<g>
</g>
<g>
</g>
<g>
</g>
<g>
</g>
<g>
</g>
<g>
</g>
<g>
</g>
<g>
</g>
</svg>
