<?xml version="1.0" encoding="iso-8859-1"?>
<!-- Generator: Adobe Illustrator 16.0.0, SVG Export Plug-In . SVG Version: 6.00 Build 0)  -->
<!DOCTYPE svg PUBLIC "-//W3C//DTD SVG 1.1//EN" "http://www.w3.org/Graphics/SVG/1.1/DTD/svg11.dtd">
<svg fill="#ffffff" version="1.1" id="Capa_1" xmlns="http://www.w3.org/2000/svg" xmlns:xlink="http://www.w3.org/1999/xlink" x="0px" y="0px"
	 width="50px" height="50px" viewBox="0 0 50 50" style="enable-background:new 0 0 50 50;" xml:space="preserve">
<g>
	<g>
		<path d="M43.75,8.203H28.055l-0.976-1.827c0-1.149-0.931-2.079-2.079-2.079c-1.149,0-2.079,0.93-2.079,2.079l-0.975,1.827H6.25
			c-3.444,0-6.25,2.806-6.25,6.25v25c0,3.443,2.806,6.25,6.25,6.25h37.5c3.443,0,6.25-2.807,6.25-6.25v-25
			C50,11.009,47.193,8.203,43.75,8.203z M45.829,39.453c0,1.148-0.931,2.079-2.079,2.079H6.25c-1.148,0-2.079-0.931-2.079-2.079v-25
			c0-1.148,0.931-2.079,2.079-2.079h37.5c1.148,0,2.079,0.931,2.079,2.079V39.453z"/>
		<path d="M43.75,13.874H6.25c-0.319,0-0.579,0.26-0.579,0.579v25c0,0.318,0.26,0.579,0.579,0.579h28.093
			c-0.086-0.232-0.137-0.505-0.137-0.796c0-0.834,0.392-1.5,0.869-1.5h6.252c0.487,0,0.879,0.666,0.879,1.5
			c0,0.291-0.052,0.562-0.138,0.796h1.682c0.318,0,0.579-0.261,0.579-0.579v-25C44.329,14.134,44.068,13.874,43.75,13.874z"/>
	</g>
</g>
<g>
</g>
<g>
</g>
<g>
</g>
<g>
</g>
<g>
</g>
<g>
</g>
<g>
</g>
<g>
</g>
<g>
</g>
<g>
</g>
<g>
</g>
<g>
</g>
<g>
</g>
<g>
</g>
<g>
</g>
</svg>
