<svg id="Capa_1" fill="#fff" enable-background="new 0 0 512.001 512.001" height="512" viewBox="0 0 512.001 512.001" width="512" xmlns="http://www.w3.org/2000/svg">
  <path d="m507.607 124.602-38.209-38.209 24.532-48.146c2.95-5.79 1.836-12.822-2.759-17.417-4.594-4.595-11.626-5.708-17.416-2.759l-48.147 24.532-38.209-38.209c-4.594-4.595-11.625-5.708-17.416-2.759-5.79 2.95-9.022 9.293-8.006 15.712l8.453 53.371-48.146 24.532c-5.79 2.95-9.022 9.293-8.006 15.712 1.017 6.418 6.051 11.452 12.469 12.469l35.059 5.553-78.104 78.104-102.532-102.532s0 0-.001-.001l-21.212-21.212c-5.856-5.857-15.354-5.858-21.213 0-5.858 5.858-5.858 15.355 0 21.213l14.17 14.17-22.802 55.969c1.686-.114 3.381-.193 5.096-.193 41.355 0 75 33.645 75 75s-33.645 75-75 75c-22.199 0-42.167-9.703-55.911-25.08l-78.188 191.919c-2.276 5.589-.982 11.999 3.285 16.266 2.868 2.869 6.705 4.394 10.609 4.394 1.904 0 3.824-.363 5.656-1.109l81.307-33.125c-12.712-13.443-20.532-31.559-20.532-51.478 0-41.355 33.645-75 75-75 40.934 0 74.293 32.969 74.968 73.745l161.872-65.948 14.171 14.171c2.929 2.929 6.768 4.394 10.606 4.394s7.678-1.464 10.606-4.394c5.858-5.858 5.858-15.355 0-21.213l-21.206-21.206c-.002-.002-.005-.005-.007-.007l-102.53-102.532 78.104-78.104 5.553 35.058c1.017 6.418 6.051 11.452 12.469 12.469.788.125 1.573.186 2.352.186 5.571 0 10.771-3.111 13.36-8.191l24.532-48.147 53.37 8.453c6.428 1.015 12.761-2.216 15.712-8.005 2.95-5.79 1.836-12.821-2.759-17.416zm-252.191 233.551c-24.813 0-45-20.187-45-45s20.187-45 45-45 45 20.187 45 45-20.186 45-45 45z"/>
  <path d="m493.505 221.14c-31.593-10.532-65.849-2.444-89.4 21.105l-10.803 10.804c-5.857 5.858-5.856 15.355.001 21.213 2.93 2.929 6.768 4.393 10.606 4.393s7.679-1.465 10.607-4.394l10.802-10.803c15.463-15.462 37.956-20.77 58.7-13.857 7.857 2.622 16.354-1.628 18.974-9.486 2.62-7.86-1.627-16.354-9.487-18.975z"/>
  <path d="m248.346 123.092c3.839 0 7.679-1.465 10.607-4.394l10.802-10.803c23.55-23.549 31.637-57.805 21.105-89.399-2.62-7.859-11.115-12.108-18.974-9.487-7.859 2.62-12.106 11.115-9.487 18.974 6.915 20.745 1.604 43.237-13.858 58.7l-10.803 10.804c-5.857 5.858-5.856 15.355.001 21.213 2.93 2.927 6.768 4.392 10.607 4.392z"/>
  <path d="m156.434 381.289c-24.813 0-45 20.187-45 45 0 16.414 8.837 30.797 21.999 38.658l66.485-27.087c.984-3.694 1.515-7.571 1.515-11.571.001-24.813-20.186-45-44.999-45z"/>
  <path d="m135.208 294.502c24.813 0 45-20.187 45-45s-20.187-45-45-45c-6.768 0-13.187 1.511-18.95 4.199l-23.12 56.75c6.452 16.962 22.872 29.051 42.07 29.051z"/>
  <circle cx="255.416" cy="313.153" r="15"/>
</svg>
