<svg width="256" height="256" xmlns="http://www.w3.org/2000/svg">
    <defs>
        <linearGradient y2="1" x2="0" y1="0" x1="0" id="gradient">
            <stop offset="0" stop-color="#6d70dd"/>
            <stop offset="1" stop-color="#b52dc0"/>
        </linearGradient>
    </defs>
     <g>
      <title>background</title>
      <rect fill="none" id="canvas_background" height="402" width="582" y="-1" x="-1"/>
     </g>
     <g>
      <title>Layer 1</title>
      <path id="svg_1" fill="url(#gradient)" d="m187.356,89.387c-1.266,0 -2.517,0.061 -3.76,0.151c-6.776,-24.344 -29.092,-42.214 -55.596,-42.214c-19.369,0 -36.496,9.55 -46.966,24.187l-6.811,12.568c-2.536,6.501 -3.944,13.567 -3.944,20.965c0,0.439 0.023,0.872 0.033,1.308c-3.095,-0.695 -6.309,-1.074 -9.614,-1.074c-24.133,0 -43.698,19.564 -43.698,43.699c0,14.75 7.315,27.782 18.507,35.696c-1.613,3.872 -2.507,8.12 -2.507,12.577c0,18.087 14.663,32.75 32.75,32.75c3.395,0 6.669,-0.517 9.749,-1.476c7.539,6.82 17.534,10.976 28.501,10.976c19.51,0 35.937,-13.15 40.932,-31.067c10.704,-0.67 19.905,-6.862 24.801,-15.757l18.324,0l0,-0.018c28.198,-0.377 50.943,-23.339 50.943,-51.627c0,-28.522 -23.122,-51.644 -51.644,-51.644z"/>
      <path id="svg_3" fill="url(#gradient)" d="m187.36,90.89c-1.11,0 -2.27,0.04 -3.66,0.14c-0.7,0.05 -1.36,-0.4 -1.55,-1.09c-6.74,-24.21 -29.01,-41.12 -54.15,-41.12c-3.24,0 -6.43,0.28 -9.52,0.81c21.1,3.64 38.79,19.2 44.67,40.31c0.19,0.69 0.85,1.14 1.55,1.09c1.39,-0.1 2.55,-0.14 3.66,-0.14c27.65,0 50.14,22.49 50.14,50.14c0,26.66 -21.2,48.74 -47.62,50.07c-0.03,0.03 -0.06,0.05 -0.09,0.08l17.04,0c0.07,-0.01 0.14,-0.02 0.21,-0.02c27.27,-0.37 49.46,-22.85 49.46,-50.13c0,-27.65 -22.49,-50.14 -50.14,-50.14z"/>
      <path id="svg_4" fill="#825cd4" d="m47.911,26.198c-0.974,11.564 -13.025,13.389 -13.025,13.389c10.347,0.487 12.925,14.059 12.925,14.059c0.221,-9.677 13.321,-14.202 13.321,-14.202c-9.813,-0.586 -13.221,-13.246 -13.221,-13.246z"/>
      <path id="svg_6" fill="#825cd4" d="m26.213,43.179c-0.689,8.179 -9.213,9.47 -9.213,9.47c7.318,0.344 9.142,9.944 9.142,9.944c0.156,-6.844 9.422,-10.045 9.422,-10.045c-6.941,-0.415 -9.351,-9.369 -9.351,-9.369z"/>
      <path id="svg_8" fill="#825cd4" d="m26.213,16.521c-0.689,8.18 -9.213,9.471 -9.213,9.471c7.318,0.344 9.142,9.944 9.142,9.944c0.156,-6.845 9.422,-10.045 9.422,-10.045c-6.941,-0.415 -9.351,-9.37 -9.351,-9.37z"/>
      <circle id="svg_10" r="8" fill="#825cd4" cy="231.5" cx="231.5"/>
      <circle id="svg_12" r="8" fill="#825cd4" cy="48.5" cx="231.5"/>
      <circle id="svg_14" r="8" fill="#825cd4" cy="78" cx="44"/>
      <circle id="svg_16" r="8" fill="#825cd4" cy="229.5" cx="24.5"/>
      <circle id="svg_18" r="8" fill="#825cd4" cy="218.5" cx="181.5"/>
      <circle id="svg_20" r="8" fill="#825cd4" cy="25.5" cx="186.5"/>
      <circle id="svg_22" r="8" fill="#825cd4" cy="70.5" cx="202.5"/>
      <circle id="svg_24" r="8" fill="#825cd4" cy="32.5" cx="94.5"/>
     </g>
</svg>