<svg height="512" viewBox="0 0 56 56" width="512" xmlns="http://www.w3.org/2000/svg">
    <defs>
        <linearGradient y2="1" x2="1" y1="0" x1="0" id="svg_2">
            <stop offset="0" stop-color="#6d70dd"/>
            <stop offset="1" stop-color="#b52dc0"/>
        </linearGradient>
    </defs>
    <g id="Page-1" fill="none" fill-rule="evenodd">
        <g id="003---Highlighter" fill="rgb(0,0,0)" fill-rule="nonzero" transform="translate(-1)">
            <path fill="url(#svg_2)" id="Rectangle-path" d="m14.196 29.815h2v24h-2z" transform="matrix(.701 -.713 .713 .701 -25.27 23.323)"/>
            <path fill="url(#svg_2)" id="Shape" d="m2.434 37.677c-.93014241.9452169-1.44668913 2.2212264-1.43599948 3.5473055.01068965 1.326079.54773997 2.5935954 1.49299948 3.5236945l9.981 9.818c.9329344.922386 2.1930751 1.4379471 3.505 1.434h.042c1.3263012-.0067001 2.5948346-.5435673 3.523-1.491l2.1-2.139-17.104-16.831zm11.429 14.05c.3871784-.3937157 1.0201952-.3990879 1.414-.012.39353.3873609 1.0265441.3824364 1.414-.011.2462596-.2719839.6216904-.3872675.9781542-.300362.3564639.0869055.6367105.3620425.7301599.716847.0934493.3548045-.0149072.7322928-.2823141.983515-.5572397.5700632-1.3198312.8928228-2.117.896h-.024c-.7860468.0016165-1.5408755-.3075038-2.1-.86-.3933308-.3867897-.3991477-1.0190389-.013-1.413z"/>
            <path fill="url(#svg_2)" id="Shape" d="m22.151 27.616c-.3805664-.3682632-.8894261-.5741022-1.419-.574-.5310619.0032573-1.0386255.2193951-1.409.6l-7.014 7.129 2.852 2.805 7.013-7.128c.3731358-.3782636.5804176-.8894578.5761026-1.4207722-.0043151-.5313144-.2198723-1.0390745-.5991026-1.4112278z"/>
            <path fill="url(#svg_2)" id="Shape" d="m34.9 4.672-26.155 26.59 2.139 2.1 7.016-7.125c.7422748-.7589586 1.7574175-1.1892869 2.819-1.195 1.6171867-.0119048 3.0824309.9511689 3.7129327 2.4404311.6305018 1.4892623.302194 3.2116634-.8319327 4.3645689l-7.013 7.129 9.267 9.117 26.158-26.593c.022-.023.035-.052.056-.076l-17.09-16.809c-.024.022-.052.035-.078.057zm13.636 16.087c.3934364.3874559.3983609 1.02047.011 1.414l-22.015 22.378c-.2462596.2719839-.6216904.3872675-.9781542.300362-.3564639-.0869055-.6367105-.3620425-.7301599-.716847-.0934493-.3548045.0149072-.7322928.2823141-.983515l22.016-22.38c.3871784-.3937157 1.0201952-.3990879 1.414-.012z"/>
            <path fill="url(#svg_2)" id="Shape" d="m53.351 0-2.158 2.331 2.869 2.823 2.935-3.006z"/>
            <path fill="url(#svg_2)" id="Shape" d="m48.95 2.931c-3.4374549 2.01269823-7.5492113 2.52982983-11.378 1.431l14.706 14.468c-1.160713-3.8004198-.7166754-7.9102067 1.229-11.375z"/>
        </g>
    </g>
</svg>