<?xml version="1.0" encoding="iso-8859-1"?>
<!-- Generator: Adobe Illustrator 17.1.0, SVG Export Plug-In . SVG Version: 6.00 Build 0)  -->
<!DOCTYPE svg PUBLIC "-//W3C//DTD SVG 1.1//EN" "http://www.w3.org/Graphics/SVG/1.1/DTD/svg11.dtd">
<svg fill="#ffffff" version="1.1" id="Capa_1" xmlns="http://www.w3.org/2000/svg" xmlns:xlink="http://www.w3.org/1999/xlink" x="0px" y="0px"
	 viewBox="0 0 385.917 385.917" style="enable-background:new 0 0 385.917 385.917;" xml:space="preserve">
<path d="M308.958,181.876v-0.835c0-19.345-15.737-35.083-35.082-35.083h-32.918v-17.682c0-5.007,4.897-11.384,7.251-14.449
	l0.332-0.433c9.285-12.126,14.193-26.938,14.193-42.833C262.735,31.654,231.081,0,192.172,0s-70.562,31.654-70.562,70.563
	c0,18.893,7.134,36.509,20.088,49.601c0.867,0.882,4.26,6.634,4.26,13.154v12.641h-33.918c-19.345,0-35.082,15.738-35.082,35.083
	v0.835c0,14.215,8.503,26.473,20.685,31.98c-10.901,17.309-17.218,37.781-17.218,59.704c0,61.954,50.403,112.357,112.357,112.357
	S305.14,335.514,305.14,273.56c0-21.871-6.288-42.297-17.141-59.58C300.329,208.534,308.958,196.198,308.958,181.876z
	 M192.783,355.917c-45.412,0-82.357-36.945-82.357-82.357c0-21.909,8.616-41.831,22.616-56.601h21.243
	c8.611,12.572,23.015,21,38.963,21h0.428c15.945,0,30.347-8.428,38.958-21h19.891c14,14.77,22.616,34.692,22.616,56.601
	C275.14,318.972,238.195,355.917,192.783,355.917z"/>
<g>
</g>
<g>
</g>
<g>
</g>
<g>
</g>
<g>
</g>
<g>
</g>
<g>
</g>
<g>
</g>
<g>
</g>
<g>
</g>
<g>
</g>
<g>
</g>
<g>
</g>
<g>
</g>
<g>
</g>
</svg>
