<?xml version="1.0" encoding="iso-8859-1"?>
<!-- Generator: Adobe Illustrator 21.0.0, SVG Export Plug-In . SVG Version: 6.00 Build 0)  -->
<svg fill="#ffffff" xmlns="http://www.w3.org/2000/svg" xmlns:xlink="http://www.w3.org/1999/xlink" version="1.1" id="Capa_1" x="0px" y="0px" viewBox="0 0 511.976 511.976" style="enable-background:new 0 0 511.976 511.976;" xml:space="preserve" width="512" height="512">
<g>
	<path style="fill-rule:evenodd;clip-rule:evenodd;" d="M501.638,419.013c-37.247-15.079-68.929-21.716-104.485-17.165   c2.501,5.589,3.89,11.737,3.89,18.162v57.979c0,5.254-0.902,10.299-2.558,14.988l99.078-0.044c7.928,0,14.356-6.428,14.356-14.355   l0.056-45.736C511.976,426.296,507.613,420.771,501.638,419.013z"/>
	<path style="fill-rule:evenodd;clip-rule:evenodd;" d="M111.23,420.009c0.002-6.318,1.329-12.495,3.816-18.133   c-35.646-4.607-67.383,2.026-104.708,17.137C4.362,420.771,0,426.296,0,432.84l0.056,45.736c0,7.928,6.427,14.355,14.356,14.355   l99.189,0.044c-1.656-4.688-2.558-9.733-2.558-14.988h0.117L111.23,420.009z"/>
	<path style="fill-rule:evenodd;clip-rule:evenodd;" d="M360.96,405.835c-78.019-31.694-132.634-31.427-210.542,0.347   c-5.793,2.356-9.304,7.937-9.306,13.828l-0.069,57.979c0,8.284,6.716,15,15,15h200c8.284,0,15-6.716,15-15v-57.979   C371.043,413.447,366.829,407.87,360.96,405.835z"/>
	<path style="fill-rule:evenodd;clip-rule:evenodd;" d="M492.043,193.571V33.988c0-8.284-6.716-15-15-15h-243   c-8.284,0-15,6.716-15,15v18.167h82c12.423,0,23.673,5.038,31.818,13.183c8.145,8.145,13.182,19.395,13.182,31.817   c0,89.78-0.044,179.558-0.044,269.338c9.722,3.117,19.691,6.748,30,10.896V208.571h101.043   C485.328,208.571,492.043,201.856,492.043,193.571z"/>
	<path style="fill-rule:evenodd;clip-rule:evenodd;" d="M39.236,241.154H155.14v131.051c10.273-3.78,20.239-7.022,30-9.726V241.154   h115.904c8.284,0,15-6.716,15-15v-129c0-8.284-6.716-15-15-15H39.236c-8.284,0-15,6.716-15,15v129   C24.236,234.439,30.951,241.154,39.236,241.154z"/>
	<path style="fill-rule:evenodd;clip-rule:evenodd;" d="M256.043,258.988c-15.034,0-28.647,6.095-38.502,15.95   c-9.854,9.854-15.949,23.467-15.949,38.501c0,15.034,6.096,28.647,15.949,38.501c9.854,9.854,23.468,15.949,38.502,15.949   c15.034,0,28.647-6.096,38.502-15.949c9.854-9.854,15.949-23.467,15.949-38.501c0-15.035-6.095-28.647-15.949-38.501   C284.691,265.084,271.078,258.988,256.043,258.988z"/>
	<path style="fill-rule:evenodd;clip-rule:evenodd;" d="M430.103,382.763c22.019,0,39.874-17.854,39.874-39.874   c0-11.01-4.464-20.978-11.68-28.194c-7.216-7.216-17.185-11.68-28.194-11.68c-11.009,0-20.978,4.464-28.194,11.68   c-7.216,7.216-11.68,17.184-11.68,28.194c0,11.009,4.464,20.978,11.68,28.194C409.125,378.299,419.094,382.763,430.103,382.763z"/>
	<path style="fill-rule:evenodd;clip-rule:evenodd;" d="M81.872,303.015c-11.01,0-20.978,4.464-28.194,11.68   c-7.216,7.216-11.68,17.184-11.68,28.194c0,22.019,17.855,39.874,39.874,39.874c11.009,0,20.978-4.464,28.194-11.68   c7.216-7.216,11.68-17.185,11.68-28.194c0-11.01-4.464-20.978-11.68-28.194C102.851,307.479,92.882,303.015,81.872,303.015z"/>
</g>















</svg>
