<?xml version="1.0" encoding="iso-8859-1"?>
<!-- Generator: Adobe Illustrator 16.0.0, SVG Export Plug-In . SVG Version: 6.00 Build 0)  -->
<!DOCTYPE svg PUBLIC "-//W3C//DTD SVG 1.1//EN" "http://www.w3.org/Graphics/SVG/1.1/DTD/svg11.dtd">
<svg fill="#fff" version="1.1" id="Capa_1" xmlns="http://www.w3.org/2000/svg" xmlns:xlink="http://www.w3.org/1999/xlink" x="0px" y="0px"
	 width="46.045px" height="46.045px" viewBox="0 0 46.045 46.045" style="enable-background:new 0 0 46.045 46.045;"
	 xml:space="preserve">
<g>
	<g>
		<g>
			<circle cx="23.709" cy="3.668" r="3.668"/>
			<path d="M38.579,37.417c-0.354-1.94-2.217-3.226-4.156-2.869l-4.831,0.886l0.606-4.649c0.095-0.717-0.127-1.44-0.606-1.981
				l-5.68-6.414l2.067-8.346l5.503,3.859c0.351,0.245,0.75,0.362,1.146,0.362c0.63,0,1.25-0.297,1.641-0.852
				c0.634-0.904,0.415-2.152-0.489-2.786l-5.902-4.139c-3.131-2.197-7.204-2.498-10.624-0.789l-7.901,3.948
				c-0.988,0.494-1.39,1.695-0.896,2.683c0.494,0.987,1.695,1.39,2.683,0.895l6.631-3.313l-1.948,7.86
				c-0.199,0.806-0.139,1.615,0.128,2.339l1.168,7.398l-3.098,6.777l-3.685,0.675c-1.94,0.355-3.225,2.216-2.869,4.156
				c0.171,0.932,0.704,1.758,1.484,2.296c0.779,0.538,1.74,0.744,2.672,0.573l24.088-4.413
				C37.649,41.218,38.935,39.357,38.579,37.417z M22.174,31.475L21.5,27.208l3.594,4.058l-0.668,5.114l-4.406,0.809l1.958-4.285
				C22.182,32.456,22.25,31.958,22.174,31.475z"/>
		</g>
	</g>
</g>
<g>
</g>
<g>
</g>
<g>
</g>
<g>
</g>
<g>
</g>
<g>
</g>
<g>
</g>
<g>
</g>
<g>
</g>
<g>
</g>
<g>
</g>
<g>
</g>
<g>
</g>
<g>
</g>
<g>
</g>
</svg>
